# xmcd
#
# Track frame offsets: 
#        150
#        11147
#        18705
#        30312
#        35060
#        39527
#        45377
#        50005
#        54612
#        67470
#        72817
#        74617
#        77632
#        80520
#        87442
#        91952
#        96195
#        102482
#        105320
#        111015
#        119025
#        126967
#        142830
#        150355
#        156645
#        161317
#        174970
#        189807
#        206930
#        229220
#        238135
#        245307
#        251045
#        258752
#        271082
#        283077
#        287810
#        291352
#        300167
#        315342
#        319002
#
# Disc length: 4393 seconds
#
# Revision: 0
# Processed by: cddbd v1.5.2PL0 Copyright (c) Steve Scherf et al.
# Submitted via: ExactAudioCopy v1.0b3
#
DISCID=48112729
DTITLE=Polskie Radio - Muzyka Zrodel - 12 - Śląsk
DYEAR=1999
DGENRE=Folk
TTITLE0=A w niedzielę rano
TTITLE1=Nie bandzie mnie głowiczka
TTITLE2=Deszczyczek padał
TTITLE3=Trojak - taniec
TTITLE4=Zajączek - taniec
TTITLE5=Za cztery niedziele
TTITLE6=Ej, cóż mi to tu kej za wesele
TTITLE7=Marsz pochodowy weselny
TTITLE8=Pieśni weselne do oczepin - Oj, schodźcie się, schodźcie wy mo
TTITLE8=je druhenki, Pomalutku rozbirajmy, Przeżegnaj się Maryś Oj, ch
TTITLE8=mielu, chmielu ty bujne ziele
TTITLE9=Za Rogoźnikiem siedem mil
TTITLE10=Dziwejcie się wszyscy ludzie
TTITLE11=Młoda pani na cepiecek
TTITLE12=Zetnij Jonek lipka
TTITLE13=Wyleciała jaskólinka z rana
TTITLE14=Oberek
TTITLE15=Jescech nie widziała
TTITLE16=Polka
TTITLE17=Przyszedłech tu po śmiergusie
TTITLE18=Od bucka do bucka
TTITLE19=Ej, byliśmy bracia
TTITLE20=Gdy Najświętsza Panienka
TTITLE21=Ach mój Boże, Gody idą
TTITLE22=Już nowy rok idzie
TTITLE23=Ze Zaksyje jadą
TTITLE24=Szmaciorz
TTITLE25=Wędrowali sice trzej młodzi
TTITLE26=Za strzyleckim młyjnom
TTITLE27=Wędrował młodzieniec
TTITLE28=Przy Opolu biały kamień
TTITLE29=Służy Jura we dworze
TTITLE30=Oberek
TTITLE31=Ożenił się wróbelek
TTITLE32=Znam ja jeden śliczny
TTITLE33=Jada ja na wojnę
TTITLE34=Godzineckę spała
TTITLE35=Już zachodzi
TTITLE36=Grozi
TTITLE37=Mietlarz
TTITLE38=Żegnał się ojciec górnik
TTITLE39=Bili się górniki
TTITLE40=Szewiec, gąsior
EXTD=
EXTT0=
EXTT1=
EXTT2=
EXTT3=
EXTT4=
EXTT5=
EXTT6=
EXTT7=
EXTT8=
EXTT9=
EXTT10=
EXTT11=
EXTT12=
EXTT13=
EXTT14=
EXTT15=
EXTT16=
EXTT17=
EXTT18=
EXTT19=
EXTT20=
EXTT21=
EXTT22=
EXTT23=
EXTT24=
EXTT25=
EXTT26=
EXTT27=
EXTT28=
EXTT29=
EXTT30=
EXTT31=
EXTT32=
EXTT33=
EXTT34=
EXTT35=
EXTT36=
EXTT37=
EXTT38=
EXTT39=
EXTT40=
PLAYORDER=
